<svg version="1.1" viewBox="0.0 0.0 1024.0 1024.0" fill="none" stroke="none" stroke-linecap="square" stroke-miterlimit="10" xmlns:xlink="http://www.w3.org/1999/xlink" xmlns="http://www.w3.org/2000/svg"><clipPath id="g3abbc855432_0_46.0"><path d="m0 0l1024.0 0l0 1024.0l-1024.0 0l0 -1024.0z" clip-rule="nonzero"/></clipPath><g clip-path="url(#g3abbc855432_0_46.0)"><path fill="#000000" fill-opacity="0.0" d="m0 0l1024.0 0l0 1024.0l-1024.0 0z" fill-rule="evenodd"/><path fill="#000000" fill-opacity="0.0" d="m-136.41995 -107.25459l1024.0 0l0 1024.0l-1024.0 0z" fill-rule="evenodd"/><path fill="#6d9eeb" d="m500.9238 915.3796q-123.546875 0 -214.82812 -29.5q-91.28125 -29.515625 -151.6875 -83.046875q-60.390617 -53.546875 -89.90625 -124.921875q-29.5 -71.375 -29.5 -153.73438q0 -98.84378 34.3125 -168.84378q34.312504 -70.0 92.65625 -106.374985q58.34375 -36.375 132.45312 -36.375q54.921875 0 95.40625 21.28125q40.5 21.265625 63.140625 60.39061q22.65625 39.109375 22.65625 92.65625q0 54.90625 -23.34375 98.140625q-23.328125 43.234406 -70.0 67.265656q-46.671875 24.015625 -119.421875 24.015625q-68.640625 0 -119.43749 -31.5625q-50.78125 -31.578125 -78.234375 -63.15628l32.95313 -85.09375q10.984375 15.09375 30.875 35.0q19.906242 19.90625 51.468742 34.3125q31.578125 14.40625 75.515625 14.40625q54.90625 0 83.046875 -23.328125q28.140625 -23.328125 28.140625 -64.515625q0 -39.8125 -21.96875 -61.078125q-21.96875 -21.28125 -57.65625 -21.28125q-64.515625 0 -104.328125 53.53125q-39.796867 53.53125 -39.796867 151.00003l0 12.34375q0 70.015625 37.749992 134.53125q37.75 64.515625 120.796875 105.015625q83.046875 40.484375 218.9375 40.484375q203.15628 0 301.9844 -72.0625q98.828125 -72.0625 98.828125 -227.18753q0 -50.78125 -15.09375 -94.015625q-15.09375 -43.25 -45.984375 -70.703125q-30.890625 -27.453125 -78.921875 -27.453125q-31.578125 0 -58.34375 21.28125q-26.765625 21.28125 -26.765625 67.953125q0 53.53125 35.6875 88.53125q35.6875 35.00003 93.34375 54.21878l0 98.828125l-424.15628 0l0 -101.578125l300.6094 0l-12.34375 9.609375q-48.046875 -23.328125 -74.8125 -67.25003q-26.765625 -43.9375 -26.765625 -101.578125q0 -41.1875 20.578125 -80.984375q20.59375 -39.8125 65.203125 -65.89061q44.609375 -26.078125 113.25 -26.078125q71.375 0 126.96875 38.4375q55.59375 38.42186 88.53125 104.999985q32.953125 66.578125 32.953125 153.04688q0 102.953156 -35.0 179.82816q-35.0 76.859375 -101.578125 126.96875q-66.578125 50.109375 -161.98438 74.8125q-95.390625 24.703125 -216.18753 24.703125z" fill-rule="nonzero"/></g></svg>